# Blender v2.74 (sub 0) OBJ File: 'WallBig.blend'
# www.blender.org
o NurbsPath_Mesh
v 8.451261 10.819840 -1.565957
v 8.458003 7.897820 -1.565957
v -3.352478 7.874911 -1.565957
v -3.352478 -3.320147 -1.565957
v -3.348947 -10.213971 -1.565957
v -6.237539 -10.207369 -1.565957
v -6.237540 -11.236418 -1.565957
v -2.478298 -11.238472 -1.565957
v -2.483737 -10.356283 -1.565957
v -2.297146 -10.356283 -1.565957
v -2.203455 6.754884 -1.565955
v 9.362181 6.815730 -1.565955
v 9.358178 10.778860 -1.565955
v 8.451261 10.819840 1.628693
v 8.458003 7.897820 1.628693
v -3.352478 7.874911 1.628693
v -3.352478 -3.320147 1.628693
v -3.348947 -10.213971 1.628693
v -6.237539 -10.207369 1.628693
v -6.237540 -11.236418 1.628693
v -2.478298 -11.238472 1.628693
v -2.483737 -10.356283 1.628693
v -2.297146 -10.356283 1.628693
v -2.203455 6.754884 1.628694
v 9.362181 6.815730 1.628694
v 9.358178 10.825109 1.628694
v 8.678149 10.643255 2.587459
v 8.670729 7.629843 2.587459
v -3.058174 7.615953 2.587459
v -3.111606 -3.311267 2.587459
v -3.105412 -10.461170 2.529357
v -5.997032 -10.410873 2.587459
v -5.997033 -11.051412 2.587459
v -2.681801 -11.065800 2.587459
v -2.711303 -10.165680 2.544399
v -2.512380 -10.184181 2.544399
v -2.475560 7.065643 2.587460
v 9.088692 7.093534 2.587460
v 9.115872 10.629343 2.587460
vn 0.578600 -0.576100 0.577300
vn 0.577800 -0.576700 0.577400
vn 0.707100 0.000200 0.707000
vn 0.576900 -0.577900 0.577200
vn 0.576700 -0.578100 0.577200
vn 0.577500 0.577200 0.577300
vn -0.579100 0.575900 0.577000
vn -0.579300 0.575700 0.577000
vn -0.575600 0.578800 0.577600
vn -0.577000 0.577100 0.577900
vn -0.579000 0.575400 0.577600
vn -0.581200 -0.565100 0.585600
vn 0.574600 -0.584700 0.572700
vn 0.701100 -0.700200 -0.134900
vn -0.706100 -0.693200 -0.144700
vn -0.502200 -0.514200 -0.695200
vn 0.502400 -0.532200 -0.681400
vn 0.703600 -0.686200 -0.184500
vn 0.700900 -0.692400 -0.171200
vn 0.991300 0.000000 -0.131400
vn -0.693400 0.705800 -0.145100
vn -0.697600 0.685700 -0.207900
vn -0.689800 0.707300 -0.154600
vn 0.700100 -0.696700 -0.156200
vn 0.705000 0.695100 -0.140300
vn -0.707700 0.693500 -0.134600
vn 0.692100 -0.697700 -0.184900
vn -0.698000 0.693700 -0.177500
vn 0.437700 -0.457800 -0.773800
vn -0.497200 0.485500 -0.719000
vn -0.431800 0.433300 -0.791000
vn -0.492000 0.539900 -0.682900
vn -0.490700 0.462800 -0.738300
vn -0.511900 0.520200 -0.683600
vn 0.500000 0.524200 -0.689400
vn 0.493100 -0.512500 -0.703000
vn 0.439400 -0.457200 -0.773200
vn 0.604800 -0.002500 -0.796400
vn 0.486500 -0.502800 -0.714400
s 1
f 2//1 3//2 4//3 5//4 6//5 7//6 8//7 9//8 10//9 11//10 12//11 13//12 1//13
f 14//14 26//15 39//16 27//17
f 1//13 13//12 26//15 14//14
f 3//2 2//1 15//18 16//19
f 4//3 3//2 16//19 17//20
f 11//10 10//9 23//21 24//22
f 10//9 9//8 22//23 23//21
f 7//6 6//5 19//24 20//25
f 9//8 8//7 21//26 22//23
f 8//7 7//6 20//25 21//26
f 6//5 5//4 18//27 19//24
f 5//4 4//3 17//20 18//27
f 12//11 11//10 24//22 25//28
f 13//12 12//11 25//28 26//15
f 2//1 1//13 14//14 15//18
f 28//29 27//17 39//16 38//30 37//31 36//32 35//33 34//34 33//35 32//36 31//37 30//38 29//39
f 16//19 15//18 28//29 29//39
f 17//20 16//19 29//39 30//38
f 24//22 23//21 36//32 37//31
f 23//21 22//23 35//33 36//32
f 20//25 19//24 32//36 33//35
f 22//23 21//26 34//34 35//33
f 21//26 20//25 33//35 34//34
f 19//24 18//27 31//37 32//36
f 18//27 17//20 30//38 31//37
f 25//28 24//22 37//31 38//30
f 26//15 25//28 38//30 39//16
f 15//18 14//14 27//17 28//29
